<?xml version="1.0" encoding="UTF-8"?>
<svg width="18px" height="16px" viewBox="0 0 18 16" version="1.1" xmlns="http://www.w3.org/2000/svg" xmlns:xlink="http://www.w3.org/1999/xlink">
    <!-- Generator: Sketch 52.5 (67469) - http://www.bohemiancoding.com/sketch -->
    <desc>Created with Sketch.</desc>
    <g id="1920x1080-(Пользователь)" stroke="none" stroke-width="1" fill="none" fill-rule="evenodd">
        <g id="Product-page-" transform="translate(-712.000000, -762.000000)" fill="#0F8BFE">
            <g id="Group" transform="translate(568.000000, 688.000000)">
                <g id="comments" transform="translate(144.000000, 74.000000)">
                    <path d="M11.992,11.026 L11.992,7.856 C11.9989303,7.16828339 11.7323645,6.50598444 11.2509512,6.0148191 C10.7695379,5.52365375 10.1127173,5.24386116 9.425,5.237 L3.574,5.237 L3.574,2.205 C3.56234244,0.999560741 4.52957063,0.0126388702 5.735,0 L15.824,0 C17.0298215,0.0120908328 17.9976556,0.99917425 17.986,2.205 L17.986,8.821 L18,12.908 C18.0016024,13.0225768 17.957618,13.1330962 17.8777251,13.2152395 C17.7978323,13.2973829 17.6885771,13.3444197 17.574,13.346 C17.460933,13.3450417 17.3529324,13.2989614 17.274,13.218 L15.126,11.026 L11.992,11.026 Z" id="Combined-Shape"></path>
                    <path d="M6.09290437e-13,13.093 L6.09290437e-13,8.729 C-0.00943692805,7.7744676 0.756472194,6.99289113 1.711,6.983 L8.557,6.983 C9.51152781,6.99289113 10.2774369,7.7744676 10.268,8.729 L10.268,13.093 C10.2774369,14.0475324 9.51152781,14.8291089 8.557,14.839 L1.811,14.839 L0.746,15.883 C0.664878205,15.9613038 0.55579511,16.0038891 0.44307729,16.001259 C0.330359471,15.9986289 0.223381323,15.9510022 0.146,15.869 C0.0698519707,15.7876284 0.0273354808,15.6804439 0.027,15.569 L0.027,13.376 C0.0105239939,13.28253 0.00149562331,13.1878993 6.09290437e-13,13.093 Z" id="Combined-Shape-2" opacity="0.3"></path>
                </g>
            </g>
        </g>
    </g>
</svg>