<?xml version="1.0" encoding="UTF-8"?>
<svg width="25px" height="26px" viewBox="0 0 25 26" version="1.1" xmlns="http://www.w3.org/2000/svg" xmlns:xlink="http://www.w3.org/1999/xlink">
    <!-- Generator: Sketch 52.5 (67469) - http://www.bohemiancoding.com/sketch -->
    <desc>Created with Sketch.</desc>
    <g id="1920x1080-(Пользователь)" stroke="none" stroke-width="1" fill="none" fill-rule="evenodd">
        <g id="Product-page----Ad-creative-" transform="translate(-1467.000000, -188.000000)" fill="#FFFFFF" fill-rule="nonzero">
            <g id="Group-15" transform="translate(1424.000000, 136.000000)">
                <g id="66490" transform="translate(43.000000, 52.000000)">
                    <path d="M21.9085106,5.0765 C21.9085106,4.623125 21.456383,4.49095833 21.1042553,4.41079167 L21.1042553,5.72920833 C21.4968085,5.702125 21.9085106,5.51470833 21.9085106,5.0765 Z" id="Shape"></path>
                    <path d="M20.7117021,2.266875 C20.2670213,2.279875 19.9787234,2.54691667 19.9787234,2.83291667 C19.9787234,3.16604167 20.2223404,3.358875 20.712234,3.45854167 L20.7117021,2.266875 Z" id="Shape"></path>
                    <path d="M20.8952128,8.05295833 C23.0760638,8.05295833 24.8494681,6.2465 24.8494681,4.02675 C24.8494681,1.807 23.0755319,0 20.8952128,0 C18.7138298,0 16.9398936,1.80645833 16.9398936,4.02675 C16.9398936,6.2465 18.7138298,8.05295833 20.8952128,8.05295833 Z M19.156383,2.98566667 C19.156383,2.08108333 19.8952128,1.613625 20.712234,1.587625 L20.712234,1.233375 C20.712234,1.11908333 20.7968085,1.00641667 20.9074468,1.00641667 C21.0191489,1.00641667 21.1042553,1.11908333 21.1042553,1.233375 L21.1042553,1.587625 C21.6132979,1.60116667 22.6606383,1.92670833 22.6606383,2.5805 C22.6606383,2.83995833 22.4702128,2.99270833 22.2484043,2.99270833 C21.8223404,2.99270833 21.8292553,2.28041667 21.1047872,2.266875 L21.1047872,3.53220833 C21.968617,3.71854167 22.7324468,3.97854167 22.7324468,5.00391667 C22.7324468,5.8955 22.0787234,6.348875 21.1047872,6.409 L21.1047872,6.82066667 C21.1047872,6.93441667 21.0196809,7.047625 20.9079787,7.047625 C20.7973404,7.047625 20.712766,6.93441667 20.712766,6.82066667 L20.712766,6.409 C19.6079787,6.381375 19.0590426,5.70916667 19.0590426,5.18266667 C19.0590426,4.91725 19.2164894,4.76341667 19.4638298,4.76341667 C20.1962766,4.76341667 19.6271277,5.68208333 20.7132979,5.72920833 L20.7132979,4.337125 C19.743617,4.15729167 19.156383,3.72504167 19.156383,2.98566667 Z" id="Shape"></path>
                    <path d="M4.97606383,17.9362083 L1.56702128,17.9362083 C0.939361702,17.9362083 0.430851064,18.4545833 0.430851064,19.09375 L0.430851064,24.3007917 C0.431382979,24.9410417 0.940425532,25.4583333 1.56702128,25.4583333 L4.97606383,25.4583333 C5.6037234,25.4583333 6.11223404,24.9410417 6.11223404,24.3007917 L6.11223404,19.09375 C6.11276596,18.4545833 5.60425532,17.9362083 4.97606383,17.9362083 Z" id="Shape"></path>
                    <path d="M13.7867021,13.8867083 L10.3776596,13.8867083 C9.75,13.8867083 9.24148936,14.4050833 9.24148936,15.04425 L9.24148936,24.301875 C9.24148936,24.942125 9.75053191,25.4594167 10.3776596,25.4594167 L13.7867021,25.4594167 C14.4143617,25.4594167 14.9234043,24.942125 14.9234043,24.301875 L14.9234043,15.042625 C14.9234043,14.4050833 14.4148936,13.8867083 13.7867021,13.8867083 Z" id="Shape"></path>
                    <path d="M22.5989362,9.257625 L19.1904255,9.257625 C18.562234,9.257625 18.0537234,9.776 18.0537234,10.414625 L18.0537234,24.3007917 C18.0537234,24.9410417 18.562766,25.4583333 19.1904255,25.4583333 L22.5989362,25.4583333 C23.2271277,25.4583333 23.7356383,24.9410417 23.7356383,24.3007917 L23.7356383,10.4151667 C23.7361702,9.776 23.2271277,9.257625 22.5989362,9.257625 Z" id="Shape"></path>
                    <path d="M15.7845745,5.94316667 L12.962766,5.34245833 C12.7468085,5.29695833 12.5244681,5.382 12.3920213,5.56129167 C12.2595745,5.741125 12.2414894,5.98216667 12.3452128,6.18095833 L12.9707447,7.37858333 L0.459042553,13.950625 C0.180319149,14.0974167 0.0707446809,14.4467917 0.214893617,14.7295417 C0.315957447,14.9283333 0.514361702,15.042625 0.720212766,15.042625 C0.807978723,15.042625 0.896808511,15.0225833 0.980319149,14.9781667 L13.5037234,8.399625 L14.0776596,9.498125 C14.1765957,9.68770833 14.3696809,9.80525 14.5792553,9.80525 C14.5888298,9.80525 14.5978723,9.80470833 14.6079787,9.80416667 C14.8281915,9.79279167 15.0223404,9.65304167 15.1053191,9.44504167 L16.1952128,6.72695833 C16.2590426,6.56770833 16.2505319,6.38841667 16.1707447,6.23675 C16.0904255,6.08670833 15.9494681,5.97891667 15.7845745,5.94316667 Z" id="Shape"></path>
                </g>
            </g>
        </g>
    </g>
</svg>