<?xml version="1.0" encoding="UTF-8"?>
<svg width="20px" height="20px" viewBox="0 0 20 20" version="1.1" xmlns="http://www.w3.org/2000/svg" xmlns:xlink="http://www.w3.org/1999/xlink">
    <!-- Generator: Sketch 52.5 (67469) - http://www.bohemiancoding.com/sketch -->
    <desc>Created with Sketch.</desc>
    <g id="1920x1080-(Пользователь)" stroke="none" stroke-width="1" fill="none" fill-rule="evenodd" fill-opacity="0.64">
        <g id="Product-page----Ad-creative-" transform="translate(-896.000000, -176.000000)" fill="#172237" fill-rule="nonzero">
            <g id="Group-13" transform="translate(568.000000, 136.000000)">
                <g id="1176" transform="translate(328.000000, 40.000000)">
                    <path d="M9.84333333,0 C4.4075,0 0,4.4075 0,9.84333333 C0,15.2791667 4.4075,19.6875 9.84333333,19.6875 C15.2791667,19.6875 19.6875,15.2791667 19.6875,9.84333333 C19.6875,4.4075 15.2791667,0 9.84333333,0 Z M11.8925,15.2558333 C11.3858333,15.4558333 10.9825,15.6075 10.68,15.7125 C10.3783333,15.8175 10.0275,15.87 9.62833333,15.87 C9.015,15.87 8.5375,15.72 8.1975,15.4208333 C7.8575,15.1216667 7.68833333,14.7425 7.68833333,14.2816667 C7.68833333,14.1025 7.70083333,13.9191667 7.72583333,13.7325 C7.75166667,13.5458333 7.7925,13.3358333 7.84833333,13.1 L8.4825,10.86 C8.53833333,10.645 8.58666667,10.4408333 8.625,10.2508333 C8.66333333,10.0591667 8.68166667,9.88333333 8.68166667,9.72333333 C8.68166667,9.43833333 8.6225,9.23833333 8.505,9.12583333 C8.38583333,9.01333333 8.16166667,8.95833333 7.8275,8.95833333 C7.66416667,8.95833333 7.49583333,8.9825 7.32333333,9.03333333 C7.1525,9.08583333 7.00416667,9.13333333 6.8825,9.18 L7.05,8.49 C7.465,8.32083333 7.8625,8.17583333 8.24166667,8.05583333 C8.62083333,7.93416667 8.97916667,7.87416667 9.31666667,7.87416667 C9.92583333,7.87416667 10.3958333,8.0225 10.7266667,8.31583333 C11.0558333,8.61 11.2216667,8.9925 11.2216667,9.4625 C11.2216667,9.56 11.21,9.73166667 11.1875,9.97666667 C11.165,10.2225 11.1225,10.4466667 11.0608333,10.6525 L10.43,12.8858333 C10.3783333,13.065 10.3325,13.27 10.2908333,13.4991667 C10.25,13.7283333 10.23,13.9033333 10.23,14.0208333 C10.23,14.3175 10.2958333,14.52 10.4291667,14.6275 C10.5608333,14.735 10.7916667,14.7891667 11.1183333,14.7891667 C11.2725,14.7891667 11.445,14.7616667 11.64,14.7083333 C11.8333333,14.655 11.9733333,14.6075 12.0616667,14.5666667 L11.8925,15.2558333 Z M11.7808333,6.19083333 C11.4866667,6.46416667 11.1325,6.60083333 10.7183333,6.60083333 C10.305,6.60083333 9.94833333,6.46416667 9.65166667,6.19083333 C9.35666667,5.9175 9.2075,5.585 9.2075,5.19666667 C9.2075,4.80916667 9.3575,4.47583333 9.65166667,4.2 C9.94833333,3.92333333 10.305,3.78583333 10.7183333,3.78583333 C11.1325,3.78583333 11.4875,3.92333333 11.7808333,4.2 C12.075,4.47583333 12.2225,4.80916667 12.2225,5.19666667 C12.2225,5.58583333 12.075,5.9175 11.7808333,6.19083333 Z" id="Shape"></path>
                </g>
            </g>
        </g>
    </g>
</svg>