<?xml version="1.0" encoding="UTF-8"?>
<svg width="18px" height="14px" viewBox="0 0 18 14" version="1.1" xmlns="http://www.w3.org/2000/svg" xmlns:xlink="http://www.w3.org/1999/xlink">
    <!-- Generator: Sketch 52.5 (67469) - http://www.bohemiancoding.com/sketch -->
    <desc>Created with Sketch.</desc>
    <g id="1920x1080-(Пользователь)" stroke="none" stroke-width="1" fill="none" fill-rule="evenodd">
        <g id="Product-page-" transform="translate(-598.000000, -764.000000)" fill="#0F8BFE">
            <g id="Group" transform="translate(568.000000, 688.000000)">
                <g id="like" transform="translate(30.000000, 76.000000)">
                    <path d="M6.532,4.667 L6.532,13.067 L7.608,13.426 C8.74950883,13.8062353 9.94482864,14.0000527 11.148,14 L14.501,14 C15.8355101,13.9996898 16.9843407,13.0576068 17.246,11.749 L17.946,8.249 C18.1169023,7.39451794 17.8802341,6.50917744 17.3057578,5.8539491 C16.7312815,5.19872077 15.8844934,4.84830745 15.015,4.906 L11.665,5.129 L12.005,1.39 C12.0358396,1.0523638 11.9312525,0.716309898 11.7142586,0.455804728 C11.4972648,0.195299559 11.1856494,0.0316946789 10.848,0.001 C10.8086667,0.000333333333 10.77,-1.98523347e-23 10.732,-1.98523347e-23 C9.86361292,-0.000132567719 9.05883995,0.455399302 8.612,1.2 L6.532,4.667 Z" id="Path-42"></path>
                    <rect id="Rectangle-153" fill-rule="nonzero" opacity="0.3" x="0" y="3.733" width="4.666" height="10.267" rx="2"></rect>
                </g>
            </g>
        </g>
    </g>
</svg>