<?xml version="1.0" encoding="UTF-8"?>
<svg width="26px" height="26px" viewBox="0 0 26 26" version="1.1" xmlns="http://www.w3.org/2000/svg" xmlns:xlink="http://www.w3.org/1999/xlink">
    <!-- Generator: Sketch 52.5 (67469) - http://www.bohemiancoding.com/sketch -->
    <desc>Created with Sketch.</desc>
    <g id="1920x1080-(Пользователь)" stroke="none" stroke-width="1" fill="none" fill-rule="evenodd">
        <g id="Product-page----Ad-creative-" transform="translate(-1038.000000, -188.000000)" fill="#FFFFFF" fill-rule="nonzero">
            <g id="Group-14" transform="translate(996.000000, 136.000000)">
                <g id="134373" transform="translate(42.000000, 52.000000)">
                    <path d="M25.6563667,0.126966667 C25.4869333,-0.0424666667 25.2130667,-0.0424666667 25.0436333,0.126966667 L23.4372667,1.73333333 L13.3479667,1.73333333 L0.664733333,14.5214333 C0.3757,14.8100333 0.216666667,15.1939667 0.216666667,15.6026 C0.216666667,16.0112333 0.3757,16.3951667 0.664733333,16.6837667 L9.53333333,25.5523667 C9.82193333,25.8409667 10.2058667,26 10.6145,26 C11.0227,26 11.4066333,25.8409667 11.6995667,25.5480333 L24.05,12.8643667 L24.05,2.34606667 L25.6563667,0.7397 C25.8258,0.570266667 25.8258,0.2964 25.6563667,0.126966667 Z M16.8995667,14.6722333 C16.7301333,14.8416667 16.4562667,14.8416667 16.2868333,14.6722333 C16.1174,14.5028 16.1174,14.2289333 16.2868333,14.0595 C17.3649667,12.9809333 17.4568333,11.2874667 16.5689333,10.1001333 L12.6919,13.9771667 L13.0216667,16.6161667 C13.1131,17.3463333 12.8999,18.0925333 12.4362333,18.6636667 C11.9864333,19.2183333 11.3537667,19.5559 10.6548,19.6135333 C10.5456,19.6226333 10.4359667,19.6274 10.3272,19.6274 C9.44103333,19.6274 8.58606667,19.3249333 7.89576667,18.7728667 L7.40046667,19.2681667 C7.31596667,19.3526667 7.20503333,19.3951333 7.0941,19.3951333 C6.98316667,19.3951333 6.87223333,19.3526667 6.78773333,19.2681667 C6.6183,19.0987333 6.6183,18.8248667 6.78773333,18.6554333 L7.2826,18.1605667 C6.05886667,16.6309 6.15376667,14.3866667 7.57076667,12.9696667 C7.7402,12.8002333 8.01406667,12.8002333 8.1835,12.9696667 C8.35293333,13.1391 8.35293333,13.4129667 8.1835,13.5824 C7.10536667,14.6609667 7.0135,16.354 7.90183333,17.5413333 L11.7788667,13.6643 L11.4491,11.0253 C11.3576667,10.2951333 11.5708667,9.54936667 12.0341,8.97823333 C12.4843333,8.424 13.117,8.086 13.8155333,8.02793333 C14.8187,7.943 15.8015,8.2472 16.5758667,8.8673 L16.8991333,8.54403333 C17.0685667,8.3746 17.3424333,8.3746 17.5118667,8.54403333 C17.6813,8.71346667 17.6813,8.98733333 17.5118667,9.15676667 L17.1873,9.48133333 C18.4114667,11.011 18.3165667,13.2552333 16.8995667,14.6722333 Z M19.2833333,8.66666667 C18.0886333,8.66666667 17.1166667,7.6947 17.1166667,6.5 C17.1166667,5.3053 18.0886333,4.33333333 19.2833333,4.33333333 C20.4780333,4.33333333 21.45,5.3053 21.45,6.5 C21.45,7.6947 20.4780333,8.66666667 19.2833333,8.66666667 Z" id="Shape"></path>
                    <path d="M13.8879,8.89156667 C13.4264,8.93056667 13.0069333,9.15503333 12.7070667,9.52466667 C12.3920333,9.91293333 12.2468667,10.4212333 12.3092667,10.9182667 L12.5554,12.8886333 L15.9557667,9.48826667 C15.3651333,9.04626667 14.6323667,8.83046667 13.8879,8.89156667 Z" id="Shape"></path>
                    <path d="M11.9153667,14.7537 L8.51543333,18.1540667 C9.10606667,18.5947667 9.8384,18.8092667 10.5828667,18.7503333 C11.0443667,18.7117667 11.4634,18.4873 11.7632667,18.1176667 C12.0787333,17.7289667 12.2239,17.2211 12.1615,16.7236333 L11.9153667,14.7537 Z" id="Shape"></path>
                </g>
            </g>
        </g>
    </g>
</svg>