<?xml version="1.0" encoding="UTF-8"?>
<svg width="18px" height="18px" viewBox="0 0 18 18" version="1.1" xmlns="http://www.w3.org/2000/svg" xmlns:xlink="http://www.w3.org/1999/xlink">
    <!-- Generator: Sketch 52.5 (67469) - http://www.bohemiancoding.com/sketch -->
    <desc>Created with Sketch.</desc>
    <g id="1920x1080-(Пользователь)" stroke="none" stroke-width="1" fill="none" fill-rule="evenodd">
        <g id="Product-page-" transform="translate(-821.000000, -762.000000)" fill="#0F8BFE" fill-rule="nonzero">
            <g id="Group" transform="translate(568.000000, 688.000000)">
                <g id="repost" transform="translate(252.000000, 74.000000)">
                    <path d="M8.258,0.785 C8.71353247,0.811908762 9.0691694,1.18917346 9.0691694,1.6455 C9.0691694,2.10182654 8.71353247,2.47909124 8.258,2.506 L4.258,2.506 C3.33388832,2.53377057 2.60634011,3.30380008 2.631,4.228 L2.631,14.557 C2.60692523,15.482331 3.33671034,16.2523863 4.262,16.278 L14.047,16.278 C14.9722897,16.2523863 15.7020748,15.482331 15.678,14.557 L15.678,12.835 C15.6596045,12.5318458 15.8108897,12.2435069 16.0707905,12.0863687 C16.3306914,11.9292306 16.6563086,11.9292306 16.9162095,12.0863687 C17.1761103,12.2435069 17.3273955,12.5318458 17.309,12.835 L17.309,14.556 C17.3577113,16.4070479 15.89798,17.9477759 14.047,17.999 L4.262,17.999 C2.41142067,17.9477725 0.95185046,16.407662 1,14.557 L1,4.228 C0.951288689,2.37695213 2.41101996,0.836224118 4.262,0.785 L8.258,0.785 Z" id="Path-57" opacity="0.3"></path>
                    <path d="M18.9858589,1.37 C19.1091343,3.30502657 18.4620702,5.21027084 17.1858589,6.67 C15.8798589,8.056 13.9298589,8.296 11.5968589,8.402 L11.5968589,11.747 C11.601429,11.9138382 11.5395041,12.0756528 11.424719,12.1968148 C11.3099339,12.3179769 11.1517004,12.3885517 10.9848589,12.393 C10.8314326,12.392502 10.6841499,12.3326572 10.5738589,12.226 L5.26685888,7.146 C5.01633172,6.89984273 4.99801653,6.50214139 5.22485888,6.234 C5.23685888,6.22 5.24919221,6.20666667 5.26185888,6.194 L10.5668589,1.002 C10.6831261,0.886109245 10.8424832,0.823998753 11.0065093,0.830643331 C11.1705355,0.837287908 11.3243466,0.912084613 11.4308589,1.037 C11.5365426,1.15877717 11.5944588,1.31475989 11.5938589,1.476 L11.5938589,4.802 C12.7750701,4.82109491 13.952572,4.66472373 15.0878589,4.338 C16.4618589,3.87666667 17.5248589,2.57133333 18.2768589,0.422 C18.3598482,0.172774194 18.5921862,0.00394731977 18.8548589,0.002 L18.9898589,0.002 C18.9898589,0.397 18.9858589,1.022 18.9858589,1.37 Z" id="Shape" transform="translate(12.033429, 6.197500) rotate(180.000000) translate(-12.033429, -6.197500) "></path>
                </g>
            </g>
        </g>
    </g>
</svg>